<?xml version="1.0" encoding="UTF-8"?>
<!DOCTYPE svg PUBLIC "-//W3C//DTD SVG 1.1//EN" "http://www.w3.org/Graphics/SVG/1.1/DTD/svg11.dtd">
<svg version="1.1" xmlns="http://www.w3.org/2000/svg" xmlns:xlink="http://www.w3.org/1999/xlink" x="0" y="0" width="46.45" height="47.51" viewBox="0, 0, 46.45, 47.51">
  <g id="white-mermaid">
    <path d="M31.315,31.803 C31.315,31.803 31.545,30.883 28.905,29.543 C27.335,28.743 25.805,28.923 24.225,28.443 C22.645,27.963 18.665,26.293 18.665,26.293 C17.908,25.307 17.075,24.381 16.175,23.523 C15.358,22.794 14.459,22.163 13.495,21.643 C13.132,21.962 12.819,22.332 12.565,22.743 C12.237,23.243 11.978,23.784 11.795,24.353 C11.612,24.922 15.185,28.643 18.795,29.783 C20.438,30.409 22.177,30.747 23.935,30.783 C24.265,30.783 26.515,30.923 27.875,30.953 C29.068,30.998 30.239,31.287 31.315,31.803 z" fill="#FFFFFF"/>
    <path d="M35.095,37.823 C35.211,35.952 34.178,34.198 32.485,33.393 C33.485,36.913 30.375,39.393 30.375,39.393 C28.816,40.269 27.129,40.893 25.375,41.243 C21.665,42.223 17.315,38.363 17.315,38.363 C16.217,37.488 15.212,36.503 14.315,35.423 C12.515,33.343 11.895,32.343 11.375,30.543 C10.948,28.743 10.803,26.888 10.945,25.043 C10.977,24.281 11.171,23.534 11.515,22.853 C12.106,22.094 12.606,21.268 13.005,20.393 C13.125,19.773 12.435,19.903 12.435,19.903 C12.435,19.903 9.925,21.373 8.815,19.383 C8.085,18.073 8.385,16.883 7.355,16.533 C7.355,16.533 6.355,20.633 3.405,21.413 C1.235,21.983 1.065,19.573 1.065,19.573 C0.625,21.149 0.291,22.753 0.065,24.373 C-0.143,27.07 0.149,29.782 0.925,32.373 C1.925,36.003 4.315,39.203 6.925,41.783 C9.565,44.593 13.021,46.502 16.805,47.243 C20.295,47.983 25.805,47.133 28.575,45.343 C29.781,44.521 30.845,43.508 31.725,42.343 L31.725,42.343 C34.445,40.793 39.215,42.123 39.215,42.123 C39.315,39.553 35.095,37.823 35.095,37.823 z" fill="#FFFFFF"/>
    <path d="M15.945,3.663 C17.885,1.433 17.325,0.663 17.325,0.663 C16.514,1.544 15.53,2.249 14.435,2.733 C13.175,3.273 11.155,4.273 10.845,4.373 C9.231,5.071 7.75,6.042 6.465,7.243 C3.565,9.653 2.025,14.903 2.025,14.903 L1.845,15.593 C1.702,16.401 1.659,17.224 1.715,18.043 C1.84,18.886 2.236,19.666 2.845,20.263 C3.085,20.603 4.665,19.613 5.645,18.123 C6.625,16.633 6.315,15.763 6.315,15.763 L5.905,15.023 C6.104,14.7 6.284,14.366 6.445,14.023 C6.958,12.891 7.383,11.721 7.715,10.523 C8.047,9.325 10.775,7.523 12.065,6.443 C13.355,5.363 14.785,4.993 15.945,3.663 z" fill="#FFFFFF"/>
    <path d="M45.145,17.393 L39.335,7.333 L33.535,17.393 L45.145,17.393 z" fill="#FFFFFF"/>
    <path d="M33.355,1.419 C35.466,3.399 35.571,6.715 33.591,8.826 C31.61,10.936 28.294,11.041 26.184,9.061 C24.074,7.081 23.968,3.765 25.949,1.654 C27.929,-0.456 31.245,-0.561 33.355,1.419 z" fill="#FFFFFF"/>
    <path d="M46.45,26.334 L39.919,32.756 L33.496,26.225 L40.027,19.803 z" fill="#FFFFFF"/>
    <path d="M20.095,13.243 L16.465,14.623 C16.562,15.101 16.562,15.595 16.465,16.073 C17.775,15.733 20.165,15.073 21.465,14.703 C22.744,14.356 24.075,14.237 25.395,14.353 C25.261,13.698 24.872,13.123 24.315,12.753 C23.855,12.597 23.371,12.523 22.885,12.533 C21.916,12.571 20.965,12.813 20.095,13.243 z" fill="#FFFFFF"/>
    <path d="M23.315,17.163 C23.917,17.13 24.507,16.984 25.055,16.733 C25.385,16.423 24.625,15.053 24.625,15.053 C24.292,15.033 23.958,15.033 23.625,15.053 C22.357,15.231 21.104,15.502 19.875,15.863 L16.315,16.663 C16.201,16.956 16.054,17.235 15.875,17.493 L19.575,17.603 z" fill="#FFFFFF"/>
    <path d="M16.945,10.853 C16.595,11.073 15.635,11.853 14.945,12.393 C15.154,12.525 15.348,12.68 15.525,12.853 C17.005,11.762 18.613,10.859 20.315,10.163 C21.31,9.99 22.329,10.013 23.315,10.233 C24.301,10.453 23.895,10.673 22.805,9.593 C21.715,8.513 20.995,8.593 20.995,8.593 C20.574,8.671 20.164,8.802 19.775,8.983 C18.801,9.558 17.856,10.182 16.945,10.853 z" fill="#FFFFFF"/>
    <path d="M22.195,11.933 C23.275,11.713 23.405,11.833 23.405,11.833 C23.345,11.596 23.247,11.369 23.115,11.163 C22.983,10.957 23.035,10.893 22.305,10.743 C21.522,10.634 20.725,10.706 19.975,10.953 C18.562,11.631 17.202,12.413 15.905,13.293 C15.905,13.353 16.005,13.393 16.035,13.463 C16.138,13.642 16.225,13.829 16.295,14.023 L18.995,13.023 C20.037,12.59 21.106,12.226 22.195,11.933 z" fill="#FFFFFF"/>
    <path d="M14.525,9.893 C13.932,10.47 13.383,11.092 12.885,11.753 C13.395,11.76 13.898,11.868 14.365,12.073 C15.165,11.443 16.485,10.413 17.365,9.783 C18.332,9.106 19.372,8.539 20.465,8.093 C21.558,7.647 19.975,7.333 19.465,7.243 C18.955,7.153 18.695,7.413 17.535,7.953 C16.467,8.494 15.458,9.144 14.525,9.893 z" fill="#FFFFFF"/>
    <path d="M26.315,17.033 L25.525,17.283 C25.175,17.393 22.525,17.833 21.605,17.993 C20.181,18.158 18.747,18.215 17.315,18.163 L15.315,18.163 C15.156,18.313 14.985,18.45 14.805,18.573 C16.315,18.993 19.295,19.813 20.805,20.033 C22.479,20.221 24.173,20.103 25.805,19.683 C26.565,19.493 26.805,19.423 26.905,18.753 C26.873,18.136 26.669,17.54 26.315,17.033 z" fill="#FFFFFF"/>
    <path d="M10.715,12.373 C11.117,12.135 11.557,11.966 12.015,11.873 C12.86,10.754 13.815,9.722 14.865,8.793 C15.903,8.06 17.008,7.427 18.165,6.903 C19.322,6.379 17.165,5.903 15.225,6.903 C13.986,7.542 12.893,8.43 12.015,9.513 C11.137,10.596 9.175,13.273 9.015,14.363 C9.015,14.423 9.015,14.463 9.015,14.523 C9.318,13.632 9.918,12.873 10.715,12.373 z" fill="#FFFFFF"/>
    <path d="M20.385,20.573 C20.385,20.573 15.005,19.283 14.585,19.143 C14.414,19.081 14.247,19.007 14.085,18.923 C13.791,19.055 13.482,19.153 13.165,19.213 C14.743,20.12 16.421,20.841 18.165,21.363 C19.753,21.9 21.448,22.047 23.105,21.793 C23.889,21.749 24.562,21.223 24.795,20.473 C23.331,20.646 21.855,20.679 20.385,20.573 z" fill="#FFFFFF"/>
    <path d="M15.515,13.781 C16.405,15.237 15.846,17.2 14.267,18.164 C12.688,19.129 10.687,18.73 9.797,17.273 C8.908,15.817 9.466,13.855 11.045,12.89 C12.624,11.926 14.625,12.324 15.515,13.781 z" fill="#FFFFFF"/>
  </g>
</svg>
