<svg width="217" height="52" viewBox="0 0 217 52" fill="none" xmlns="http://www.w3.org/2000/svg">
<path d="M83.8906 26.0888H81.4006C81.3539 26.0917 81.3071 26.0847 81.2633 26.0681C81.2195 26.0516 81.1798 26.0259 81.1467 25.9928C81.1135 25.9597 81.0879 25.9199 81.0713 25.8761C81.0548 25.8323 81.0477 25.7855 81.0506 25.7388V8.65879L74.0306 20.0688C73.9306 20.2388 73.8206 20.4188 73.6106 20.4188H71.6106C71.4006 20.4188 71.2906 20.2488 71.1906 20.0688L64.1906 8.65879V25.7388C64.1936 25.7855 64.1865 25.8323 64.17 25.8761C64.1534 25.9199 64.1277 25.9597 64.0946 25.9928C64.0615 26.0259 64.0218 26.0516 63.978 26.0681C63.9342 26.0847 63.8874 26.0917 63.8406 26.0888H61.3506C61.3039 26.0917 61.2571 26.0847 61.2133 26.0681C61.1695 26.0516 61.1298 26.0259 61.0967 25.9928C61.0636 25.9597 61.0379 25.9199 61.0213 25.8761C61.0048 25.8323 60.9977 25.7855 61.0006 25.7388V2.6088C60.9977 2.56207 61.0048 2.51526 61.0213 2.47147C61.0379 2.42768 61.0636 2.38791 61.0967 2.3548C61.1298 2.3217 61.1695 2.29602 61.2133 2.27946C61.2571 2.26291 61.3039 2.25587 61.3506 2.25879H63.8306C64.0406 2.25879 64.0806 2.4288 64.1806 2.6088L72.6206 16.3588L81.0306 2.6088C81.1306 2.4288 81.1706 2.25879 81.3806 2.25879H83.8706C83.9174 2.25587 83.9642 2.26291 84.008 2.27946C84.0518 2.29602 84.0915 2.3217 84.1246 2.3548C84.1577 2.38791 84.1834 2.42768 84.2 2.47147C84.2165 2.51526 84.2236 2.56207 84.2206 2.6088V25.7388C84.2234 25.7838 84.2169 25.8289 84.2015 25.8712C84.1861 25.9136 84.1623 25.9524 84.1314 25.9852C84.1004 26.018 84.0631 26.0441 84.0217 26.0619C83.9803 26.0797 83.9357 26.0889 83.8906 26.0888V26.0888Z" fill="white"/>
<path d="M106.162 26.0888H89.572C89.5252 26.0917 89.4784 26.0847 89.4346 26.0681C89.3908 26.0516 89.3511 26.0259 89.318 25.9928C89.2849 25.9597 89.2592 25.9199 89.2426 25.8761C89.2261 25.8323 89.219 25.7855 89.222 25.7388V2.6088C89.219 2.56207 89.2261 2.51526 89.2426 2.47147C89.2592 2.42768 89.2849 2.38791 89.318 2.3548C89.3511 2.3217 89.3908 2.29602 89.4346 2.27946C89.4784 2.26291 89.5252 2.25587 89.572 2.25879H106.162C106.209 2.25587 106.256 2.26291 106.299 2.27946C106.343 2.29602 106.383 2.3217 106.416 2.3548C106.449 2.38791 106.475 2.42768 106.491 2.47147C106.508 2.51526 106.515 2.56207 106.512 2.6088V4.84879C106.515 4.89552 106.508 4.94233 106.491 4.98612C106.475 5.02991 106.449 5.06968 106.416 5.10279C106.383 5.13589 106.343 5.16157 106.299 5.17812C106.256 5.19468 106.209 5.20172 106.162 5.19879H92.512V12.6588H104.312C104.359 12.6559 104.406 12.6629 104.449 12.6795C104.493 12.696 104.533 12.7217 104.566 12.7548C104.599 12.7879 104.625 12.8277 104.641 12.8715C104.658 12.9153 104.665 12.9621 104.662 13.0088V15.2588C104.665 15.3055 104.658 15.3523 104.641 15.3961C104.625 15.4399 104.599 15.4797 104.566 15.5128C104.533 15.5459 104.493 15.5716 104.449 15.5881C104.406 15.6047 104.359 15.6117 104.312 15.6088H92.512V23.1688H106.162C106.209 23.1659 106.256 23.1729 106.299 23.1895C106.343 23.206 106.383 23.2317 106.416 23.2648C106.449 23.2979 106.475 23.3377 106.491 23.3815C106.508 23.4253 106.515 23.4721 106.512 23.5188V25.7588C106.512 25.8039 106.503 25.8485 106.485 25.8899C106.467 25.9313 106.441 25.9686 106.408 25.9995C106.376 26.0304 106.337 26.0543 106.294 26.0697C106.252 26.085 106.207 26.0915 106.162 26.0888Z" fill="white"/>
<path d="M123.553 16.9899L129.553 25.6399C129.693 25.8499 129.693 26.0999 129.413 26.0999H126.223C126.104 26.0943 125.987 26.0595 125.885 25.9985C125.782 25.9374 125.695 25.8521 125.633 25.7499L119.633 17.0699H114.803V25.7499C114.806 25.7966 114.799 25.8434 114.783 25.8872C114.766 25.931 114.74 25.9707 114.707 26.0038C114.674 26.0369 114.634 26.0626 114.591 26.0792C114.547 26.0957 114.5 26.1028 114.453 26.0999H111.863C111.817 26.1028 111.77 26.0957 111.726 26.0792C111.682 26.0626 111.642 26.0369 111.609 26.0038C111.576 25.9707 111.55 25.931 111.534 25.8872C111.517 25.8434 111.51 25.7966 111.513 25.7499V2.60985C111.51 2.56313 111.517 2.51632 111.534 2.47252C111.55 2.42873 111.576 2.38896 111.609 2.35586C111.642 2.32276 111.682 2.29708 111.726 2.28052C111.77 2.26397 111.817 2.25692 111.863 2.25985H122.613C124.521 2.21889 126.371 2.91772 127.776 4.21002C129.18 5.50232 130.03 7.28787 130.148 9.19278C130.265 11.0977 129.641 12.9742 128.407 14.4295C127.172 15.8847 125.422 16.8058 123.523 16.9999L123.553 16.9899ZM126.743 9.66985C126.684 8.44525 126.149 7.29217 125.253 6.45561C124.356 5.61906 123.169 5.16497 121.943 5.18985H114.833V14.1199H121.953C123.179 14.1447 124.366 13.6906 125.263 12.8541C126.159 12.0175 126.694 10.8644 126.753 9.63985L126.743 9.66985Z" fill="white"/>
<path d="M158.033 26.0888H155.543C155.496 26.0917 155.449 26.0847 155.405 26.0681C155.361 26.0516 155.322 26.0259 155.289 25.9928C155.255 25.9597 155.23 25.9199 155.213 25.8761C155.197 25.8323 155.19 25.7855 155.193 25.7388V8.65879L148.193 20.0688C148.093 20.2388 147.983 20.4188 147.773 20.4188H145.773C145.563 20.4188 145.453 20.2488 145.353 20.0688L138.353 8.65879V25.7388C138.355 25.7855 138.348 25.8323 138.332 25.8761C138.315 25.9199 138.29 25.9597 138.257 25.9928C138.223 26.0259 138.184 26.0516 138.14 26.0681C138.096 26.0847 138.049 26.0917 138.003 26.0888H135.513C135.466 26.0917 135.419 26.0847 135.375 26.0681C135.331 26.0516 135.292 26.0259 135.259 25.9928C135.225 25.9597 135.2 25.9199 135.183 25.8761C135.167 25.8323 135.16 25.7855 135.163 25.7388V2.6088C135.16 2.56207 135.167 2.51526 135.183 2.47147C135.2 2.42768 135.225 2.38791 135.259 2.3548C135.292 2.3217 135.331 2.29602 135.375 2.27946C135.419 2.26291 135.466 2.25587 135.513 2.25879H137.973C138.183 2.25879 138.223 2.4288 138.323 2.6088L146.763 16.3688L155.203 2.6088C155.313 2.4288 155.343 2.25879 155.553 2.25879H158.043C158.089 2.25587 158.136 2.26291 158.18 2.27946C158.224 2.29602 158.263 2.3217 158.296 2.3548C158.33 2.38791 158.355 2.42768 158.372 2.47147C158.388 2.51526 158.395 2.56207 158.393 2.6088V25.7388C158.396 25.7864 158.388 25.8342 158.371 25.8787C158.354 25.9233 158.327 25.9636 158.293 25.9968C158.259 26.0301 158.218 26.0556 158.173 26.0714C158.128 26.0873 158.08 26.0932 158.033 26.0888Z" fill="white"/>
<path d="M181.744 26.4081H179.154C179.061 26.4081 178.972 26.3713 178.906 26.3056C178.841 26.24 178.804 26.151 178.804 26.0581V18.3281H166.744V26.0681C166.747 26.1149 166.74 26.1617 166.723 26.2055C166.707 26.2493 166.681 26.289 166.648 26.3221C166.615 26.3552 166.575 26.3809 166.531 26.3975C166.487 26.414 166.441 26.4211 166.394 26.4181H163.744C163.697 26.4211 163.65 26.414 163.607 26.3975C163.563 26.3809 163.523 26.3552 163.49 26.3221C163.457 26.289 163.431 26.2493 163.415 26.2055C163.398 26.1617 163.391 26.1149 163.394 26.0681V12.6581C163.394 7.65815 166.304 2.25815 172.744 2.25815C179.184 2.25815 182.054 7.64815 182.054 12.6581V26.0581C182.057 26.1015 182.051 26.145 182.037 26.186C182.022 26.2271 182 26.265 181.972 26.2975C181.943 26.33 181.908 26.3565 181.869 26.3755C181.83 26.3945 181.787 26.4056 181.744 26.4081V26.4081ZM178.744 12.5781C178.744 8.44815 176.534 5.43815 172.744 5.43815C168.954 5.43815 166.744 8.45815 166.744 12.5781V15.3781H178.744V12.5781Z" fill="white"/>
<path d="M189.995 26.0888H187.405C187.358 26.0917 187.312 26.0847 187.268 26.0681C187.224 26.0516 187.184 26.0259 187.151 25.9928C187.118 25.9597 187.092 25.9199 187.076 25.8761C187.059 25.8323 187.052 25.7855 187.055 25.7388V2.6088C187.052 2.56207 187.059 2.51526 187.076 2.47147C187.092 2.42768 187.118 2.38791 187.151 2.3548C187.184 2.3217 187.224 2.29602 187.268 2.27946C187.312 2.26291 187.358 2.25587 187.405 2.25879H189.995C190.042 2.25587 190.089 2.26291 190.132 2.27946C190.176 2.29602 190.216 2.3217 190.249 2.3548C190.282 2.38791 190.308 2.42768 190.324 2.47147C190.341 2.51526 190.348 2.56207 190.345 2.6088V25.7388C190.348 25.7855 190.341 25.8323 190.324 25.8761C190.308 25.9199 190.282 25.9597 190.249 25.9928C190.216 26.0259 190.176 26.0516 190.132 26.0681C190.089 26.0847 190.042 26.0917 189.995 26.0888V26.0888Z" fill="white"/>
<path d="M204.306 26.0891H195.696C195.65 26.092 195.603 26.085 195.559 26.0684C195.515 26.0519 195.476 26.0262 195.442 25.9931C195.409 25.96 195.384 25.9202 195.367 25.8764C195.351 25.8326 195.344 25.7858 195.346 25.7391V2.6091C195.344 2.56238 195.351 2.51557 195.367 2.47178C195.384 2.42798 195.409 2.38822 195.442 2.35511C195.476 2.32201 195.515 2.29633 195.559 2.27977C195.603 2.26322 195.65 2.25617 195.696 2.2591H204.306C207.51 2.21891 210.599 3.4477 212.9 5.67723C215.201 7.90675 216.526 10.9559 216.586 14.1591C216.578 15.7529 216.251 17.329 215.627 18.7953C215.002 20.2616 214.092 21.5888 212.948 22.6994C211.805 23.81 210.452 24.6818 208.968 25.2638C207.485 25.8457 205.9 26.1263 204.306 26.0891V26.0891ZM204.306 5.3991H198.636V22.9391H204.306C206.632 22.9391 208.863 22.0151 210.508 20.3704C212.152 18.7257 213.076 16.4951 213.076 14.1691C213.076 11.8432 212.152 9.61247 210.508 7.96778C208.863 6.32308 206.632 5.3991 204.306 5.3991V5.3991Z" fill="white"/>
<path fill-rule="evenodd" clip-rule="evenodd" d="M120 31H59V52H120V31ZM69.9922 36.5781H66.4375V48H70.7109C71.5755 48 72.3203 47.8698 72.9453 47.6094C73.5755 47.3438 74.0599 46.9635 74.3984 46.4688C74.737 45.974 74.9062 45.3802 74.9062 44.6875C74.9062 44.0885 74.8125 43.6094 74.625 43.25C74.4427 42.8854 74.1979 42.6094 73.8906 42.4219C73.5833 42.2292 73.2396 42.0938 72.8594 42.0156V41.9375C73.2344 41.8698 73.5521 41.724 73.8125 41.5C74.0729 41.276 74.2708 40.9896 74.4062 40.6406C74.5469 40.2917 74.6172 39.901 74.6172 39.4688C74.6172 38.3958 74.2266 37.6458 73.4453 37.2188C72.6641 36.7917 71.513 36.5781 69.9922 36.5781ZM70.2656 41.1016H68.8594V38.5625H70.1328C70.8255 38.5625 71.3307 38.6589 71.6484 38.8516C71.9714 39.0391 72.1328 39.3516 72.1328 39.7891C72.1328 40.2214 71.9974 40.5495 71.7266 40.7734C71.4557 40.9922 70.9688 41.1016 70.2656 41.1016ZM68.8594 46V43.0234H70.3594C70.875 43.0234 71.2786 43.0833 71.5703 43.2031C71.8672 43.3229 72.0781 43.4896 72.2031 43.7031C72.3281 43.9167 72.3906 44.1641 72.3906 44.4453C72.3906 44.9193 72.2474 45.2969 71.9609 45.5781C71.6745 45.8594 71.1667 46 70.4375 46H68.8594ZM79.4275 48H86.0056V46H81.8494V43.0547H85.7166V41.0703H81.8494V38.5625H86.0056V36.5781H79.4275V48ZM92.6206 48H95.0425V38.5938H98.1441V36.5781H89.5191V38.5938H92.6206V48ZM108.306 45.2812L109.134 48H111.743L107.697 36.5312H104.736L100.704 48H103.314L104.142 45.2812H108.306ZM106.9 40.5938L107.728 43.25H104.751L105.572 40.5938C105.608 40.474 105.668 40.2734 105.751 39.9922C105.835 39.7109 105.921 39.4141 106.009 39.1016C106.103 38.7839 106.176 38.5182 106.228 38.3047C106.28 38.5182 106.348 38.7708 106.431 39.0625C106.519 39.349 106.605 39.6328 106.689 39.9141C106.777 40.1901 106.848 40.4167 106.9 40.5938Z" fill="white"/>
<path d="M31.3149 33.9698C31.3149 33.9698 31.5449 33.0498 28.9049 31.7098C27.3349 30.9098 25.8049 31.0898 24.2249 30.6098C22.6449 30.1298 18.6649 28.4598 18.6649 28.4598C17.9077 27.4736 17.0752 26.5474 16.1749 25.6898C15.3582 24.9605 14.4587 24.3295 13.4949 23.8098C13.1322 24.1285 12.8188 24.4992 12.5649 24.9098C12.237 25.4094 11.978 25.9509 11.7949 26.5198C11.7949 26.5198 15.1849 30.8098 18.7949 31.9498C20.4382 32.5755 22.1769 32.9137 23.9349 32.9498C24.2649 32.9498 26.5149 33.0898 27.8749 33.1198C29.0677 33.1647 30.2385 33.454 31.3149 33.9698V33.9698Z" fill="white"/>
<path d="M35.0949 39.9898C35.1517 39.0752 34.9335 38.1646 34.4684 37.3751C34.0032 36.5856 33.3124 35.9533 32.4849 35.5598C33.4849 39.0798 30.3749 41.5598 30.3749 41.5598C28.8159 42.4356 27.1285 43.06 25.3749 43.4098C21.6649 44.3898 17.3149 40.5298 17.3149 40.5298C16.217 39.6549 15.2118 38.6698 14.3149 37.5898C12.5149 35.5098 11.8949 34.5098 11.3749 32.7098C10.9479 30.9098 10.8028 29.0544 10.9449 27.2098C10.9765 26.4475 11.1709 25.7008 11.5149 25.0198C12.1058 24.2608 12.6059 23.4351 13.0049 22.5598C13.1249 21.9398 12.4349 22.0698 12.4349 22.0698C12.4349 22.0698 9.92487 23.5398 8.81487 21.5498C8.08487 20.2398 8.38487 19.0498 7.35487 18.6998C7.35487 18.6998 6.35487 22.7998 3.40487 23.5798C1.23487 24.1498 1.06487 21.7398 1.06487 21.7398C0.6252 23.3158 0.291126 24.9194 0.0648697 26.5398C-0.142689 29.2367 0.148852 31.9487 0.92487 34.5398C1.92487 38.1698 4.31487 41.3698 6.92487 43.9498C9.56521 46.7595 13.021 48.6693 16.8049 49.4098C20.2949 50.1498 25.8049 49.2998 28.5749 47.5098C29.781 46.6878 30.845 45.6745 31.7249 44.5098V44.5098C34.4449 42.9598 39.2149 44.2898 39.2149 44.2898C39.3149 41.7198 35.0949 39.9898 35.0949 39.9898Z" fill="white"/>
<path d="M15.9448 5.8298C17.8848 3.5998 17.3248 2.8298 17.3248 2.8298C16.5139 3.71093 15.5301 4.41557 14.4348 4.8998C13.1748 5.4398 11.1548 6.4398 10.8448 6.5398C9.23104 7.23819 7.74943 8.20901 6.46484 9.4098C3.56484 11.8198 2.02484 17.0698 2.02484 17.0698L1.84484 17.7598C1.70201 18.5681 1.65835 19.3909 1.71484 20.2098C1.8394 21.0532 2.23621 21.8328 2.84484 22.4298C3.08484 22.7698 4.66484 21.7798 5.64484 20.2898C6.62484 18.7998 6.31484 17.9298 6.31484 17.9298L5.90484 17.1898C6.10341 16.8668 6.28369 16.533 6.44484 16.1898C6.9579 15.0577 7.38251 13.8875 7.71484 12.6898C7.71484 12.6898 10.7748 9.6898 12.0648 8.6098C13.3548 7.5298 14.7848 7.1598 15.9448 5.8298Z" fill="white"/>
<path d="M45.1449 19.5598L39.3349 9.49982L33.5349 19.5598H45.1449Z" fill="white"/>
<path d="M33.5905 10.9924C35.5708 8.88212 35.4654 5.56601 33.3551 3.58569C31.2448 1.60536 27.9287 1.71073 25.9484 3.82104C23.968 5.93135 24.0734 9.24746 26.1837 11.2278C28.294 13.2081 31.6101 13.1027 33.5905 10.9924Z" fill="white"/>
<path d="M39.9185 34.9232L46.4496 28.5006L40.027 21.9695L33.4958 28.3921L39.9185 34.9232Z" fill="white"/>
<path d="M20.0948 15.4098L16.4648 16.7898C16.5621 17.2683 16.5621 17.7614 16.4648 18.2398C17.7748 17.8998 20.1648 17.2398 21.4648 16.8698C22.744 16.5228 24.0745 16.4043 25.3948 16.5198C25.2605 15.8647 24.8722 15.2895 24.3148 14.9198C23.8545 14.7641 23.3707 14.6897 22.8848 14.6998C21.9154 14.7383 20.9648 14.9802 20.0948 15.4098V15.4098Z" fill="white"/>
<path d="M23.3149 19.3298C23.9167 19.297 24.507 19.1511 25.0549 18.8998C25.3849 18.5898 24.6249 17.2198 24.6249 17.2198C24.2918 17.1998 23.9579 17.1998 23.6249 17.2198C22.3568 17.3982 21.1035 17.6689 19.8749 18.0298L16.3149 18.8298C16.2013 19.1228 16.0536 19.4014 15.8749 19.6598L19.5749 19.7698L23.3149 19.3298Z" fill="white"/>
<path d="M16.9448 13.0198C16.5948 13.2398 15.6348 14.0198 14.9448 14.5598C15.1539 14.6922 15.3483 14.8464 15.5248 15.0198C17.0044 13.9289 18.6133 13.0254 20.3148 12.3298C21.3098 12.1564 22.3291 12.1802 23.3148 12.3998C23.3148 12.3998 23.8948 12.8398 22.8048 11.7598C21.7148 10.6798 20.9948 10.7598 20.9948 10.7598C20.5733 10.8378 20.1634 10.9689 19.7748 11.1498C18.8004 11.7248 17.8559 12.3489 16.9448 13.0198V13.0198Z" fill="white"/>
<path d="M22.1949 14.0998C23.2749 13.8798 23.4049 13.9998 23.4049 13.9998C23.3447 13.7624 23.2468 13.5362 23.1149 13.3298C23.1149 13.3298 23.0349 13.0598 22.3049 12.9098C21.5224 12.8012 20.7254 12.8731 19.9749 13.1198C18.5622 13.798 17.2018 14.5801 15.9049 15.4598C15.9049 15.5198 16.0049 15.5598 16.0349 15.6298C16.1381 15.8083 16.2252 15.9958 16.2949 16.1898L18.9949 15.1898C20.0367 14.7572 21.1056 14.3931 22.1949 14.0998V14.0998Z" fill="white"/>
<path d="M14.5249 12.0598C13.9314 12.6369 13.3832 13.2588 12.8849 13.9198C13.3947 13.9264 13.8979 14.0352 14.3649 14.2398C15.1649 13.6098 16.4849 12.5798 17.3649 11.9498C18.3319 11.2726 19.3717 10.7057 20.4649 10.2598C20.4649 10.2598 19.9749 9.49981 19.4649 9.40981C18.9549 9.31981 18.6949 9.57981 17.5349 10.1198C16.467 10.6604 15.4582 11.3105 14.5249 12.0598V12.0598Z" fill="white"/>
<path d="M26.3148 19.1998L25.5248 19.4498C25.1748 19.5598 22.5248 19.9998 21.6048 20.1598C20.1811 20.3246 18.7471 20.3814 17.3148 20.3298H15.3148C15.1557 20.4795 14.9852 20.6166 14.8048 20.7398C16.3148 21.1598 19.2948 21.9798 20.8048 22.1998C22.4789 22.3882 24.1733 22.2696 25.8048 21.8498C26.5648 21.6598 26.8048 21.5898 26.9048 20.9198C26.8731 20.3026 26.6687 19.7066 26.3148 19.1998Z" fill="white"/>
<path d="M10.7149 14.5398C11.1171 14.3014 11.5566 14.1324 12.0149 14.0398C12.8597 12.9206 13.8144 11.8887 14.8649 10.9598C15.9027 10.2269 17.0076 9.5941 18.1649 9.06981C18.1649 9.06981 17.1649 8.06981 15.2249 9.06981C13.9859 9.70851 12.8929 10.5972 12.0149 11.6798C12.0149 11.6798 9.17489 15.4398 9.01489 16.5298C9.01489 16.5898 9.01489 16.6298 9.01489 16.6898C9.31741 15.7989 9.91781 15.0396 10.7149 14.5398V14.5398Z" fill="white"/>
<path d="M20.3849 22.7398C20.3849 22.7398 15.0049 21.4498 14.5849 21.3098C14.4135 21.2478 14.2465 21.1743 14.0849 21.0898C13.7907 21.2223 13.4819 21.3196 13.1649 21.3798C14.7434 22.2863 16.4211 23.0078 18.1649 23.5298C19.7534 24.0666 21.4476 24.2141 23.1049 23.9598C23.4876 23.9383 23.8545 23.8003 24.1566 23.5644C24.4586 23.3285 24.6814 23.0059 24.7949 22.6398C23.3314 22.8127 21.8548 22.8461 20.3849 22.7398V22.7398Z" fill="white"/>
<path d="M14.2669 20.3308C15.8457 19.3663 16.4045 17.4039 15.5148 15.9475C14.6252 14.4912 12.6241 14.0925 11.0452 15.057C9.46632 16.0215 8.9076 17.984 9.79724 19.4403C10.6869 20.8966 12.688 21.2953 14.2669 20.3308Z" fill="white"/>
</svg>
