<svg width="75" height="36" viewBox="0 0 75 36" fill="none" xmlns="http://www.w3.org/2000/svg">
<path d="M74.6547 18.9683C74.9369 18.6931 74.9426 18.2412 74.6674 17.959L70.183 13.3603C69.9078 13.0781 69.4559 13.0724 69.1737 13.3476C68.8915 13.6228 68.8858 14.0746 69.161 14.3568L73.1472 18.4446L69.0594 22.4308C68.7772 22.706 68.7715 23.1578 69.0467 23.44C69.3219 23.7222 69.7738 23.7279 70.056 23.4527L74.6547 18.9683ZM0.960938 17.5361L0.951956 18.2498L74.1475 19.171L74.1564 18.4573L74.1654 17.7437L0.969919 16.8225L0.960938 17.5361Z" fill="#1C124A"/>
<rect x="21.6821" y="1.37991" width="32.8302" height="32.8302" rx="16.4151" transform="rotate(0.721044 21.6821 1.37991)" fill="white"/>
<rect x="21.6821" y="1.37991" width="32.8302" height="32.8302" rx="16.4151" transform="rotate(0.721044 21.6821 1.37991)" stroke="#1C124A" stroke-width="1.4274"/>
<path d="M34.2768 21.5239L34.4205 10.1056L32.9932 10.0877L32.9573 12.9423L30.1027 12.9063L30.0848 14.3336L32.9394 14.3695L32.8495 21.506C32.8448 21.8845 32.9906 22.2494 33.2549 22.5205C33.5192 22.7915 33.8803 22.9465 34.2589 22.9512L41.3953 23.041L41.3594 25.8956L42.7867 25.9136L42.8226 23.059L45.6771 23.0949L45.6951 21.6676M41.4312 20.1865L42.8585 20.2044L42.9304 14.4953C42.9351 14.1167 42.7893 13.7518 42.525 13.4808C42.2607 13.2097 41.8996 13.0548 41.521 13.05L35.8119 12.9782L35.7939 14.4055L41.5031 14.4773L41.4312 20.1865Z" fill="#1C124A"/>
</svg>
